<?xml version="1.0" encoding="UTF-8" standalone="no"?>
<!-- Generator: Adobe Illustrator 18.1.1, SVG Export Plug-In . SVG Version: 6.00 Build 0)  -->

<svg
   xmlns:dc="http://purl.org/dc/elements/1.1/"
   xmlns:cc="http://creativecommons.org/ns#"
   xmlns:rdf="http://www.w3.org/1999/02/22-rdf-syntax-ns#"
   xmlns:svg="http://www.w3.org/2000/svg"
   xmlns="http://www.w3.org/2000/svg"
   xmlns:sodipodi="http://sodipodi.sourceforge.net/DTD/sodipodi-0.dtd"
   xmlns:inkscape="http://www.inkscape.org/namespaces/inkscape"
   version="1.1"
   id="Capa_1"
   x="0px"
   y="0px"
   viewBox="0 0 26.571 26.571"
   style="enable-background:new 0 0 26.571 26.571;"
   xml:space="preserve"
   inkscape:version="0.91 r13725"
   sodipodi:docname="funkylambda.svg"><metadata
     id="metadata41"><rdf:RDF><cc:Work
         rdf:about=""><dc:format>image/svg+xml</dc:format><dc:type
           rdf:resource="http://purl.org/dc/dcmitype/StillImage" /><dc:title></dc:title></cc:Work></rdf:RDF></metadata><defs
     id="defs39" /><sodipodi:namedview
     pagecolor="#ffffff"
     bordercolor="#666666"
     borderopacity="1"
     objecttolerance="10"
     gridtolerance="10"
     guidetolerance="10"
     inkscape:pageopacity="0"
     inkscape:pageshadow="2"
     inkscape:window-width="756"
     inkscape:window-height="1031"
     id="namedview37"
     showgrid="false"
     inkscape:snap-midpoints="false"
     inkscape:zoom="11.313708"
     inkscape:cx="5.964176"
     inkscape:cy="21.204012"
     inkscape:window-x="0"
     inkscape:window-y="19"
     inkscape:window-maximized="0"
     inkscape:current-layer="g3" /><g
     id="g3"
     transform="translate(0,-0.08838835)"><path
       style="fill:#010002"
       d="m 15.326,22.951777 c -0.049,0.061 -1.182,1.446 -2.776,0.273 l -0.039,-0.44 c -0.007,-0.078 -0.076,-0.135 -0.153,-0.128 -0.075,0.007 -0.134,0.074 -0.128,0.151 l 0.033,0.365 -0.316,0.027 c -0.079,0.005 -0.135,0.075 -0.129,0.151 0.007,0.077 0.076,0.135 0.153,0.127 l 0.406,-0.034 c 0.594,0.439 1.14,0.561 1.603,0.521 0.949,-0.082 1.558,-0.827 1.567,-0.84 0.047,-0.06 0.038,-0.146 -0.023,-0.197 -0.061,-0.047 -0.149,-0.037 -0.198,0.024 z M 13.286,0.1767767 c -6.39,0 -11.569,5.1800001 -11.569,11.5680003 0,3.856 1.886,7.271 4.787,9.374 l 0,-0.006 c 1.11,3.292 3.913,5.635 7.192,5.635 3.566,0 6.573,-2.77 7.447,-6.517 10e-4,0.001 10e-4,0.002 10e-4,0.005 2.283,-2.114 3.71,-5.135 3.71,-8.491 C 24.855,5.3567768 19.675,0.1767767 13.286,0.1767767 Z m 0.41,25.3820003 c -3.633,0 -6.585,-3.314 -6.652,-7.434 0.018,-0.048 0.037,-0.094 0.057,-0.141 l 2.237,0 1.809,0.02 c 0,0 5.972,1.242 9.206,-0.02 0,4.184 -2.98,7.575 -6.657,7.575 z"
       id="path5"
       inkscape:connector-curvature="0"
       sodipodi:nodetypes="sccccccccccccsssccscccsscccccs" /><circle
       style="fill:#000000"
       id="path3381"
       cx="10.728461"
       cy="20.255676"
       r="1.5026019" /><circle
       style="fill:#000000"
       id="path3395"
       cx="19.65625"
       cy="22.477249"
       r="0.40625" /><circle
       style="fill:#000000"
       id="path3381-3"
       cx="10.915961"
       cy="20.693174"
       r="0" /><circle
       style="fill:#000000"
       id="path3381-6"
       cx="16.885574"
       cy="20.327011"
       inkscape:transform-center-x="0.55303158"
       inkscape:transform-center-y="0.67592717"
       r="1.4773082" /><g
       id="g3804"
       transform="translate(-6.75,-0.17900087)"><path
         id="path3794"
         d="m 16.214029,3.948061 1.120318,0 c 0.668182,0 1.269545,0.4070341 1.517886,1.0273295 l 3.632682,9.0811475 c 0.248341,0.620853 0.849148,1.027887 1.517886,1.027887 l 1.120319,0"
         style="fill:none;stroke:#ffffff;stroke-width:1.11363637;stroke-miterlimit:10"
         inkscape:connector-curvature="0" /><polygon
         id="polygon3796"
         points="8,27 10.177,27 16.056,13.36 14.766,11.301 "
         style="fill:#ffffff"
         transform="matrix(0.55681818,0,0,0.55681818,11.202665,0.60715186)" /></g></g><g
     id="g7" /><g
     id="g9" /><g
     id="g11" /><g
     id="g13" /><g
     id="g15" /><g
     id="g17" /><g
     id="g19" /><g
     id="g21" /><g
     id="g23" /><g
     id="g25" /><g
     id="g27" /><g
     id="g29" /><g
     id="g31" /><g
     id="g33" /><g
     id="g35" /></svg>